Lexend-wght300.ufo
<glyph name="quotesingle" format="2">
  <advance width="193"/>
  <unicode hex="0027"/>
  <note>
quotesingle
</note>
  <outline>
    <contour>
      <point x="50" y="442" type="line"/>
      <point x="83" y="700" type="line"/>
      <point x="153" y="700" type="line"/>
      <point x="86" y="442" type="line"/>
    </contour>
  </outline>
</glyph>
<glyph name="comma" format="2">
  <advance width="233"/>
  <unicode hex="002C"/>
  <note>
comma
</note>
  <outline>
    <contour>
      <point x="114" y="75" type="qcurve"/>
      <point x="145.0" y="75.0"/>
      <point x="178.0" y="32.0"/>
      <point x="178" y="-6" type="qcurve"/>
      <point x="178.0" y="-53.0"/>
      <point x="131" y="-120"/>
      <point x="78" y="-151" type="qcurve"/>
      <point x="60" y="-125" type="line"/>
      <point x="88" y="-108"/>
      <point x="118.0" y="-70.0"/>
      <point x="118" y="-49" type="qcurve"/>
      <point x="118.0" y="-37.0"/>
      <point x="112" y="-17"/>
      <point x="95" y="-3" type="qcurve"/>
      <point x="85.81858736630694" y="4.141098715094602"/>
      <point x="73.0" y="25.421052631578945"/>
      <point x="73" y="37" type="qcurve"/>
      <point x="73.0" y="54.1"/>
      <point x="95.0" y="75.0"/>
    </contour>
  </outline>
</glyph>
<glyph name="eight" format="2">
  <advance width="580"/>
  <unicode hex="0038"/>
  <guideline x="-99" y="202" angle="0" identifier="peLwOMXwvx"/>
  <outline>
    <contour>
      <point x="499" y="520" type="qcurve"/>
      <point x="499.0" y="469.0"/>
      <point x="434.9594076810686" y="381.9903679243214"/>
      <point x="376" y="368" type="qcurve"/>
      <point x="373" y="385" type="line"/>
      <point x="441.0715515738784" y="362.9768509613923"/>
      <point x="526.0" y="258.0"/>
      <point x="526" y="202" type="qcurve"/>
      <point x="526" y="115"/>
      <point x="389" y="-3"/>
      <point x="290" y="-3" type="qcurve"/>
      <point x="192" y="-3"/>
      <point x="54" y="116"/>
      <point x="54" y="202" type="qcurve"/>
      <point x="54.0" y="263.0"/>
      <point x="134.89933519892236" y="360.96191061580845"/>
      <point x="209" y="389" type="qcurve"/>
      <point x="203" y="368" type="line"/>
      <point x="146.03122140409243" y="379.99342707282267"/>
      <point x="81.0" y="469.0"/>
      <point x="81" y="520" type="qcurve"/>
      <point x="81" y="595"/>
      <point x="203" y="700"/>
      <point x="290" y="700" type="qcurve"/>
      <point x="377" y="700"/>
      <point x="499" y="595"/>
    </contour>
    <contour>
      <point x="290" y="650" type="qcurve"/>
      <point x="223" y="650"/>
      <point x="134" y="574"/>
      <point x="134" y="519" type="qcurve"/>
      <point x="134" y="463"/>
      <point x="223" y="390"/>
      <point x="290" y="390" type="qcurve" smooth="yes"/>
      <point x="357" y="390"/>
      <point x="446" y="462"/>
      <point x="446" y="519" type="qcurve"/>
      <point x="446" y="574"/>
      <point x="357" y="650"/>
    </contour>
    <contour>
      <point x="107" y="202" type="qcurve"/>
      <point x="107" y="138"/>
      <point x="212" y="47"/>
      <point x="290" y="47" type="qcurve"/>
      <point x="369" y="47"/>
      <point x="473" y="137"/>
      <point x="473" y="202" type="qcurve"/>
      <point x="473.0" y="267.12"/>
      <point x="369.0" y="350.0"/>
      <point x="290" y="350" type="qcurve" smooth="yes"/>
      <point x="212.0" y="350.0"/>
      <point x="107.0" y="267.12"/>
    </contour>
  </outline>
</glyph>
<glyph name="question" format="2">
  <advance width="498"/>
  <unicode hex="003F"/>
  <note>
question
</note>
  <outline>
    <contour>
      <point x="210" y="201" type="line"/>
      <point x="202" y="327" type="line"/>
      <point x="301" y="352"/>
      <point x="395" y="445"/>
      <point x="395" y="511" type="qcurve" smooth="yes"/>
      <point x="395" y="572"/>
      <point x="311" y="653"/>
      <point x="246" y="653" type="qcurve"/>
      <point x="197" y="653"/>
      <point x="107" y="599"/>
      <point x="71" y="542" type="qcurve"/>
      <point x="35" y="573" type="line"/>
      <point x="76" y="635"/>
      <point x="187" y="703"/>
      <point x="248" y="703" type="qcurve"/>
      <point x="333" y="703"/>
      <point x="448" y="592"/>
      <point x="448" y="511" type="qcurve" smooth="yes"/>
      <point x="448" y="433"/>
      <point x="330" y="311"/>
      <point x="241" y="291" type="qcurve"/>
      <point x="264" y="324" type="line"/>
      <point x="251" y="201" type="line"/>
    </contour>
    <contour>
      <point x="278" y="40" type="qcurve" smooth="yes"/>
      <point x="278" y="18"/>
      <point x="254" y="-10"/>
      <point x="234" y="-10" type="qcurve" smooth="yes"/>
      <point x="213" y="-10"/>
      <point x="190" y="16"/>
      <point x="190" y="40" type="qcurve" smooth="yes"/>
      <point x="190" y="62"/>
      <point x="214" y="90"/>
      <point x="234" y="90" type="qcurve" smooth="yes"/>
      <point x="255" y="90"/>
      <point x="278" y="64"/>
    </contour>
  </outline>
</glyph>
<glyph name="H" format="2">
  <advance width="744"/>
  <unicode hex="0048"/>
  <note>
H
</note>
  <anchor x="376" y="0" name="bottom"/>
  <anchor x="376" y="350" name="center"/>
  <anchor x="376" y="700" name="top"/>
  <anchor x="36" y="700" name="topleft"/>
  <outline>
    <contour>
      <point x="108" y="700.0" type="line"/>
      <point x="158" y="700.0" type="line"/>
      <point x="158" y="0.0" type="line"/>
      <point x="108" y="0.0" type="line"/>
    </contour>
    <contour>
      <point x="586" y="700.0" type="line"/>
      <point x="636" y="700.0" type="line"/>
      <point x="636" y="0.0" type="line"/>
      <point x="586" y="0.0" type="line"/>
    </contour>
    <contour>
      <point x="137" y="324" type="line"/>
      <point x="137" y="374" type="line"/>
      <point x="604" y="374" type="line"/>
      <point x="604" y="324" type="line"/>
    </contour>
  </outline>
</glyph>
<glyph name="L" format="2">
  <advance width="536"/>
  <unicode hex="004C"/>
  <note>
L
</note>
  <guideline x="293" y="328" angle="270.0" name="center" identifier="wyHiWnY2bl"/>
  <anchor x="324" y="0" name="bottom"/>
  <anchor x="317" y="350" name="center"/>
  <anchor x="141" y="700" name="top"/>
  <anchor x="477" y="700" name="topright"/>
  <outline>
    <contour>
      <point x="132" y="50" type="line"/>
      <point x="501" y="50" type="line"/>
      <point x="501" y="0.0" type="line"/>
      <point x="108" y="0.0" type="line"/>
      <point x="108" y="700.0" type="line"/>
      <point x="158" y="700.0" type="line"/>
      <point x="158" y="28.0" type="line"/>
    </contour>
  </outline>
</glyph>
<glyph name="U" format="2">
  <advance width="753"/>
  <unicode hex="0055"/>
  <note>
U
</note>
  <guideline x="376.5" y="0" angle="270.0" identifier="7HqeavjfOo"/>
  <anchor x="374" y="0" name="bottom"/>
  <anchor x="496" y="10" name="ogonek"/>
  <anchor x="374" y="700" name="top"/>
  <anchor x="537" y="689" name="topright"/>
  <outline>
    <contour>
      <point x="596" y="701" type="line"/>
      <point x="645" y="701" type="line"/>
      <point x="645" y="269" type="line"/>
      <point x="645" y="149"/>
      <point x="492" y="-6"/>
      <point x="374" y="-6" type="qcurve"/>
      <point x="258" y="-6"/>
      <point x="108" y="149"/>
      <point x="108" y="269" type="qcurve"/>
      <point x="108" y="701" type="line"/>
      <point x="158" y="701" type="line"/>
      <point x="158" y="278" type="line"/>
      <point x="158" y="176"/>
      <point x="280" y="44"/>
      <point x="374" y="44" type="qcurve"/>
      <point x="471" y="44"/>
      <point x="596" y="176"/>
      <point x="596" y="278" type="qcurve"/>
    </contour>
  </outline>
</glyph>
<glyph name="m" format="2">
  <advance width="901"/>
  <unicode hex="006D"/>
  <note>
m
</note>
  <guideline x="130" y="421" angle="0" identifier="yWfZUqe5W8"/>
  <anchor x="451" y="0" name="bottom"/>
  <anchor x="451" y="510" name="top"/>
  <outline>
    <contour>
      <point x="315" y="531" type="qcurve"/>
      <point x="372" y="531"/>
      <point x="455" y="468"/>
      <point x="475" y="375" type="qcurve"/>
      <point x="455" y="389" type="line"/>
      <point x="462" y="406" type="line" smooth="yes"/>
      <point x="481.9954138037641" y="454.5602906662843"/>
      <point x="590" y="531.0"/>
      <point x="664" y="531" type="qcurve"/>
      <point x="742" y="531"/>
      <point x="829" y="426"/>
      <point x="829" y="315" type="qcurve"/>
      <point x="829" y="0" type="line"/>
      <point x="779" y="0" type="line"/>
      <point x="779" y="313" type="line"/>
      <point x="779" y="400"/>
      <point x="714" y="483"/>
      <point x="651" y="483" type="qcurve"/>
      <point x="574" y="483"/>
      <point x="476" y="383"/>
      <point x="476" y="318" type="qcurve"/>
      <point x="476" y="0" type="line"/>
      <point x="426" y="0" type="line"/>
      <point x="426" y="313" type="line"/>
      <point x="426" y="400"/>
      <point x="360" y="483"/>
      <point x="297" y="483" type="qcurve"/>
      <point x="221" y="483"/>
      <point x="123" y="383"/>
      <point x="123" y="318" type="qcurve"/>
      <point x="123" y="0" type="line"/>
      <point x="73" y="0" type="line"/>
      <point x="73" y="520" type="line"/>
      <point x="121" y="520" type="line"/>
      <point x="126" y="394" type="line"/>
      <point x="114" y="396" type="line"/>
      <point x="133" y="460"/>
      <point x="244" y="531"/>
    </contour>
  </outline>
</glyph>
<glyph name="o" format="2">
  <advance width="599"/>
  <unicode hex="006F"/>
  <note>
o
</note>
  <guideline x="299.5" y="0" angle="270.0" identifier="PXFW1zC7mr"/>
  <anchor x="300" y="1" name="bottom"/>
  <anchor x="300" y="257" name="center"/>
  <anchor x="394" y="11" name="ogonek"/>
  <anchor x="305" y="513" name="top"/>
  <anchor x="388" y="505" name="topright"/>
  <outline>
    <contour>
      <point x="300" y="531" type="qcurve"/>
      <point x="417" y="531"/>
      <point x="567" y="380"/>
      <point x="567" y="263" type="qcurve"/>
      <point x="567" y="144"/>
      <point x="417" y="-10"/>
      <point x="300" y="-10" type="qcurve"/>
      <point x="183" y="-10"/>
      <point x="32" y="144"/>
      <point x="32" y="263" type="qcurve"/>
      <point x="32" y="380"/>
      <point x="183" y="531"/>
    </contour>
    <contour>
      <point x="300" y="40" type="qcurve"/>
      <point x="393" y="40"/>
      <point x="514" y="166"/>
      <point x="514" y="263" type="qcurve" smooth="yes"/>
      <point x="514" y="358"/>
      <point x="393" y="481"/>
      <point x="300" y="481" type="qcurve"/>
      <point x="206" y="481"/>
      <point x="85" y="358"/>
      <point x="85" y="263" type="qcurve" smooth="yes"/>
      <point x="85" y="166"/>
      <point x="206" y="40"/>
    </contour>
  </outline>
</glyph>
<glyph name="t" format="2">
  <advance width="359"/>
  <unicode hex="0074"/>
  <note>
t
</note>
  <anchor x="157" y="0" name="bottom"/>
  <anchor x="177" y="256" name="center"/>
  <anchor x="178" y="646" name="top"/>
  <anchor x="361" y="700" name="topright"/>
  <outline>
    <contour>
      <point x="202" y="659" type="line"/>
      <point x="202" y="0" type="line"/>
      <point x="152" y="0" type="line"/>
      <point x="152" y="659" type="line"/>
    </contour>
    <contour>
      <point x="342" y="520" type="line"/>
      <point x="342" y="474" type="line"/>
      <point x="27" y="474" type="line"/>
      <point x="27" y="520" type="line"/>
    </contour>
  </outline>
</glyph>
<glyph name="cent" format="2">
  <advance width="545"/>
  <unicode hex="00A2"/>
  <note>
cent
</note>
  <anchor x="259" y="88" name="bottom"/>
  <anchor x="299" y="618" name="top"/>
  <outline>
    <contour>
      <point x="327" y="87" type="line"/>
      <point x="327" y="0" type="line"/>
      <point x="277" y="0" type="line"/>
      <point x="277" y="88" type="line"/>
      <point x="278" y="122" type="line"/>
      <point x="278" y="577" type="line"/>
      <point x="277" y="606" type="line"/>
      <point x="277" y="700" type="line"/>
      <point x="327" y="700" type="line"/>
      <point x="327" y="605" type="line"/>
      <point x="326" y="577" type="line"/>
      <point x="326" y="121" type="line"/>
    </contour>
    <contour>
      <point x="308" y="569" type="qcurve"/>
      <point x="220" y="569"/>
      <point x="103" y="445"/>
      <point x="103" y="349" type="qcurve"/>
      <point x="103" y="253"/>
      <point x="219" y="128"/>
      <point x="301" y="128" type="qcurve"/>
      <point x="355" y="128"/>
      <point x="444" y="168"/>
      <point x="481" y="210" type="qcurve"/>
      <point x="514" y="173" type="line"/>
      <point x="478" y="128"/>
      <point x="372" y="78"/>
      <point x="309" y="78" type="qcurve"/>
      <point x="196" y="78"/>
      <point x="50" y="231"/>
      <point x="50" y="349" type="qcurve"/>
      <point x="50" y="467"/>
      <point x="197" y="619"/>
      <point x="312" y="619" type="qcurve"/>
      <point x="376" y="619"/>
      <point x="481" y="569"/>
      <point x="516" y="524" type="qcurve"/>
      <point x="484" y="485" type="line"/>
      <point x="451" y="525"/>
      <point x="359" y="569"/>
    </contour>
  </outline>
</glyph>
<glyph name="cedilla" format="2">
  <advance width="267"/>
  <unicode hex="00B8"/>
  <anchor x="141" y="0" name="_bottom"/>
  <outline>
    <contour>
      <point x="96" y="-93" type="line"/>
      <point x="56" y="-86" type="line"/>
      <point x="116" y="6" type="line"/>
      <point x="160" y="6" type="line"/>
    </contour>
    <contour>
      <point x="210" y="-135" type="qcurve"/>
      <point x="210" y="-157"/>
      <point x="181" y="-200"/>
      <point x="156" y="-211" type="qcurve" smooth="yes"/>
      <point x="132" y="-221"/>
      <point x="83" y="-230"/>
      <point x="50" y="-230" type="qcurve"/>
      <point x="43" y="-197" type="line"/>
      <point x="88" y="-195"/>
      <point x="162" y="-168"/>
      <point x="162" y="-140" type="qcurve"/>
      <point x="162" y="-122"/>
      <point x="117" y="-96"/>
      <point x="69" y="-96" type="qcurve"/>
      <point x="56" y="-88" type="line"/>
      <point x="56" y="-86" type="line"/>
      <point x="95" y="-57" type="line"/>
      <point x="152" y="-63"/>
      <point x="210" y="-103"/>
    </contour>
  </outline>
</glyph>
<glyph name="Thorn" format="2">
  <advance width="589"/>
  <unicode hex="00DE"/>
  <note>
Thorn
</note>
  <anchor x="295" y="0" name="bottom"/>
  <anchor x="295" y="700" name="top"/>
  <outline>
    <contour>
      <point x="108" y="700" type="line"/>
      <point x="158" y="700" type="line"/>
      <point x="158" y="0" type="line"/>
      <point x="108" y="0" type="line"/>
    </contour>
    <contour>
      <point x="136" y="161" type="line"/>
      <point x="135" y="215" type="line"/>
      <point x="347" y="215" type="line" smooth="yes"/>
      <point x="413" y="215"/>
      <point x="486" y="300"/>
      <point x="486" y="358" type="qcurve" smooth="yes"/>
      <point x="486" y="417"/>
      <point x="411" y="499"/>
      <point x="347" y="499" type="qcurve"/>
      <point x="137" y="499" type="line"/>
      <point x="137" y="553" type="line"/>
      <point x="349" y="553" type="line"/>
      <point x="430" y="553"/>
      <point x="539" y="440"/>
      <point x="539" y="358" type="qcurve" smooth="yes"/>
      <point x="539" y="276"/>
      <point x="430" y="161"/>
      <point x="348" y="161" type="qcurve"/>
    </contour>
  </outline>
</glyph>
<glyph name="oslash" format="2">
  <advance width="599"/>
  <unicode hex="00F8"/>
  <guideline x="299.5" y="0" angle="270.0" identifier="FLYrTxxKTE"/>
  <anchor x="305" y="530" name="top"/>
  <anchor x="305" y="0" name="bottom"/>
  <anchor x="305" y="256" name="center"/>
  <anchor x="547" y="10" name="ogonek"/>
  <anchor x="319" y="531" name="topright"/>
  <outline>
    <contour>
      <point x="85" y="-24" type="line"/>
      <point x="51" y="1" type="line"/>
      <point x="514" y="545" type="line"/>
      <point x="549" y="519" type="line"/>
    </contour>
    <contour>
      <point x="300" y="531" type="qcurve"/>
      <point x="417" y="531"/>
      <point x="567" y="380"/>
      <point x="567" y="263" type="qcurve"/>
      <point x="567" y="144"/>
      <point x="417" y="-10"/>
      <point x="300" y="-10" type="qcurve"/>
      <point x="183" y="-10"/>
      <point x="32" y="144"/>
      <point x="32" y="263" type="qcurve"/>
      <point x="32" y="380"/>
      <point x="183" y="531"/>
    </contour>
    <contour>
      <point x="300" y="40" type="qcurve"/>
      <point x="393" y="40"/>
      <point x="514" y="166"/>
      <point x="514" y="263" type="qcurve" smooth="yes"/>
      <point x="514" y="358"/>
      <point x="393" y="481"/>
      <point x="300" y="481" type="qcurve"/>
      <point x="206" y="481"/>
      <point x="85" y="358"/>
      <point x="85" y="263" type="qcurve" smooth="yes"/>
      <point x="85" y="166"/>
      <point x="206" y="40"/>
    </contour>
  </outline>
</glyph>
<glyph name="thorn" format="2">
  <advance width="615"/>
  <unicode hex="00FE"/>
  <note>
thorn
</note>
  <anchor x="284" y="0" name="bottom"/>
  <anchor x="284" y="499" name="top"/>
  <outline>
    <contour>
      <point x="334" y="531" type="qcurve"/>
      <point x="438" y="531"/>
      <point x="583" y="378"/>
      <point x="583" y="260" type="qcurve"/>
      <point x="583" y="143"/>
      <point x="441" y="-10"/>
      <point x="334" y="-10" type="qcurve"/>
      <point x="255" y="-10"/>
      <point x="134" y="81"/>
      <point x="115" y="148" type="qcurve"/>
      <point x="125" y="135" type="line"/>
      <point x="125" y="-220" type="line"/>
      <point x="75" y="-220" type="line"/>
      <point x="75" y="740" type="line"/>
      <point x="125" y="740" type="line"/>
      <point x="125" y="385" type="line"/>
      <point x="115" y="373" type="line"/>
      <point x="134" y="440"/>
      <point x="255" y="531"/>
    </contour>
    <contour>
      <point x="530" y="260" type="qcurve"/>
      <point x="530" y="356"/>
      <point x="415" y="481"/>
      <point x="326" y="481" type="qcurve"/>
      <point x="237" y="481"/>
      <point x="121" y="357"/>
      <point x="121" y="261" type="qcurve"/>
      <point x="121" y="164"/>
      <point x="238" y="40"/>
      <point x="326" y="40" type="qcurve"/>
      <point x="416" y="40"/>
      <point x="530" y="165"/>
    </contour>
  </outline>
</glyph>
<glyph name="Hbar" format="2">
  <advance width="744"/>
  <unicode hex="0126"/>
  <anchor x="424" y="0" name="bottom"/>
  <anchor x="424" y="350" name="center"/>
  <anchor x="424" y="700" name="top"/>
  <anchor x="84" y="700" name="topleft"/>
  <outline>
    <contour>
      <point x="108" y="536" type="line"/>
      <point x="28" y="536" type="line"/>
      <point x="28" y="582" type="line"/>
      <point x="108" y="582" type="line"/>
      <point x="219" y="582" type="line"/>
      <point x="503" y="582" type="line"/>
      <point x="636" y="582" type="line"/>
      <point x="716" y="582" type="line"/>
      <point x="716" y="536" type="line"/>
      <point x="636" y="536" type="line"/>
      <point x="515" y="536" type="line"/>
      <point x="209" y="536" type="line"/>
    </contour>
    <contour>
      <point x="108" y="700" type="line"/>
      <point x="158" y="700" type="line"/>
      <point x="158" y="0" type="line"/>
      <point x="108" y="0" type="line"/>
    </contour>
    <contour>
      <point x="586" y="700" type="line"/>
      <point x="636" y="700" type="line"/>
      <point x="636" y="0" type="line"/>
      <point x="586" y="0" type="line"/>
    </contour>
    <contour>
      <point x="137" y="324" type="line"/>
      <point x="137" y="374" type="line"/>
      <point x="604" y="374" type="line"/>
      <point x="604" y="324" type="line"/>
    </contour>
  </outline>
</glyph>
<glyph name="Lslash" format="2">
  <advance width="536"/>
  <unicode hex="0141"/>
  <anchor x="337" y="0" name="bottom"/>
  <anchor x="330" y="350" name="center"/>
  <anchor x="180" y="700" name="top"/>
  <anchor x="586" y="700" name="topright"/>
  <outline>
    <contour>
      <point x="132" y="50" type="line"/>
      <point x="501" y="50" type="line"/>
      <point x="501" y="0" type="line"/>
      <point x="108" y="0" type="line"/>
      <point x="108" y="700" type="line"/>
      <point x="158" y="700" type="line"/>
      <point x="158" y="28" type="line"/>
    </contour>
    <contour>
      <point x="24" y="291" type="line"/>
      <point x="7" y="332" type="line"/>
      <point x="281" y="456" type="line"/>
      <point x="298" y="414" type="line"/>
    </contour>
  </outline>
</glyph>
<glyph name="lslash" format="2">
  <advance width="268"/>
  <unicode hex="0142"/>
  <anchor x="120" y="0" name="bottom"/>
  <anchor x="120" y="289" name="center"/>
  <anchor x="121" y="740" name="top"/>
  <anchor x="227" y="580" name="topright"/>
  <outline>
    <contour>
      <point x="158" y="0" type="line"/>
      <point x="108" y="0" type="line"/>
      <point x="108" y="740" type="line"/>
      <point x="158" y="740" type="line"/>
    </contour>
    <contour>
      <point x="18" y="287" type="line"/>
      <point x="0" y="330" type="line"/>
      <point x="249" y="437" type="line"/>
      <point x="267" y="394" type="line"/>
    </contour>
  </outline>
</glyph>
<glyph name="ogonek" format="2">
  <advance width="295"/>
  <unicode hex="02DB"/>
  <outline>
    <contour>
      <point x="149" y="-221" type="qcurve" smooth="yes"/>
      <point x="105.0" y="-221.0"/>
      <point x="47.0" y="-167"/>
      <point x="47" y="-124" type="qcurve"/>
      <point x="47.0" y="-75"/>
      <point x="127" y="1"/>
      <point x="202" y="26" type="qcurve"/>
      <point x="214" y="17" type="line"/>
      <point x="214" y="0" type="line"/>
      <point x="158" y="-21"/>
      <point x="93.0" y="-86"/>
      <point x="93" y="-118" type="qcurve"/>
      <point x="93.0" y="-144"/>
      <point x="124.0" y="-179.0"/>
      <point x="154" y="-179" type="qcurve" smooth="yes"/>
      <point x="172.0" y="-179.0"/>
      <point x="203" y="-163"/>
      <point x="219" y="-143" type="qcurve"/>
      <point x="252" y="-167" type="line"/>
      <point x="233" y="-194"/>
      <point x="185" y="-221"/>
    </contour>
  </outline>
</glyph>
<glyph name="hungarumlautcomb" format="2">
  <unicode hex="030B"/>
  <anchor x="172" y="512" name="_top"/>
  <anchor x="172" y="740" name="top"/>
  <outline>
    <contour>
      <point x="221" y="690" type="line"/>
      <point x="67" y="589" type="line"/>
      <point x="46" y="620" type="line"/>
      <point x="188" y="735" type="line"/>
    </contour>
    <contour>
      <point x="371" y="690" type="line"/>
      <point x="217" y="589" type="line"/>
      <point x="196" y="620" type="line"/>
      <point x="338" y="735" type="line"/>
    </contour>
  </outline>
</glyph>
<glyph name="dieresisbelowcomb" format="2">
  <unicode hex="0324"/>
  <anchor x="198" y="0" name="_bottom"/>
  <anchor x="198" y="-150" name="bottom"/>
  <outline>
    <contour>
      <point x="333" y="-132.0"/>
      <point x="312" y="-150.0"/>
      <point x="287" y="-150.0" type="qcurve"/>
      <point x="264" y="-150.0"/>
      <point x="243" y="-131.0"/>
      <point x="243" y="-111.0" type="qcurve"/>
      <point x="243" y="-99.0" type="line" smooth="yes"/>
      <point x="243" y="-79.0"/>
      <point x="265" y="-60.0"/>
      <point x="288" y="-60.0" type="qcurve"/>
      <point x="311" y="-60.0"/>
      <point x="333" y="-78.0"/>
      <point x="333" y="-99.0" type="qcurve"/>
      <point x="333" y="-111.0" type="line" smooth="yes"/>
    </contour>
    <contour>
      <point x="149" y="-132.0"/>
      <point x="128" y="-150.0"/>
      <point x="103" y="-150.0" type="qcurve"/>
      <point x="80" y="-150.0"/>
      <point x="59" y="-131.0"/>
      <point x="59" y="-111.0" type="qcurve"/>
      <point x="59" y="-99.0" type="line" smooth="yes"/>
      <point x="59" y="-79.0"/>
      <point x="81" y="-60.0"/>
      <point x="103" y="-60.0" type="qcurve"/>
      <point x="127" y="-60.0"/>
      <point x="149" y="-78.0"/>
      <point x="149" y="-99.0" type="qcurve"/>
      <point x="149" y="-111.0" type="line" smooth="yes"/>
    </contour>
  </outline>
</glyph>
<glyph name="commaaccentcomb" format="2">
  <unicode hex="0326"/>
  <anchor x="124" y="0" name="_bottom"/>
  <anchor x="123" y="-276" name="bottom"/>
  <anchor x="133" y="-276" name="_top"/>
  <outline>
    <contour>
      <point x="86" y="-186" type="qcurve"/>
      <point x="65" y="-162" type="line"/>
      <point x="89" y="-147"/>
      <point x="112.0" y="-126.0"/>
      <point x="112" y="-113" type="qcurve"/>
      <point x="112.0" y="-107.0"/>
      <point x="105" y="-96"/>
      <point x="90" y="-90" type="qcurve" smooth="yes"/>
      <point x="80" y="-86"/>
      <point x="68" y="-68"/>
      <point x="68" y="-57" type="qcurve"/>
      <point x="68" y="-43"/>
      <point x="89" y="-24"/>
      <point x="104" y="-24" type="qcurve"/>
      <point x="132" y="-24"/>
      <point x="163" y="-57"/>
      <point x="163" y="-85" type="qcurve"/>
      <point x="163.0" y="-118"/>
      <point x="126" y="-163"/>
    </contour>
  </outline>
</glyph>
<glyph name="pi" format="2">
  <advance width="614"/>
  <unicode hex="03C0"/>
  <note>
pi
</note>
  <outline>
    <contour>
      <point x="164" y="0" type="line"/>
      <point x="114" y="0" type="line"/>
      <point x="114" y="509" type="line"/>
      <point x="131" y="474" type="line"/>
      <point x="40" y="474" type="line"/>
      <point x="40" y="520" type="line"/>
      <point x="574" y="520" type="line"/>
      <point x="574" y="474" type="line"/>
      <point x="483" y="474" type="line"/>
      <point x="500" y="509" type="line"/>
      <point x="500" y="0" type="line"/>
      <point x="450" y="0" type="line"/>
      <point x="450" y="488" type="line"/>
      <point x="464" y="474" type="line"/>
      <point x="151" y="474" type="line"/>
      <point x="164" y="487" type="line"/>
    </contour>
  </outline>
</glyph>
<glyph name="emdash" format="2">
  <advance width="868"/>
  <unicode hex="2014"/>
  <note>
emdash
</note>
  <outline>
    <contour>
      <point x="815.0" y="267.0" type="line"/>
      <point x="53.0" y="267.0" type="line"/>
      <point x="53.0" y="317.0" type="line"/>
      <point x="815.0" y="317.0" type="line"/>
    </contour>
  </outline>
</glyph>
<glyph name="ruble" format="2">
  <advance width="719"/>
  <unicode hex="20BD"/>
  <anchor x="406" y="0" name="bottom"/>
  <anchor x="406" y="700" name="top"/>
  <outline>
    <contour>
      <point x="199" y="333" type="line"/>
      <point x="199" y="283" type="line"/>
      <point x="91" y="283" type="line"/>
      <point x="91" y="333" type="line"/>
    </contour>
    <contour>
      <point x="193" y="700" type="line"/>
      <point x="462" y="700" type="line" smooth="yes"/>
      <point x="542" y="700"/>
      <point x="646" y="586"/>
      <point x="646" y="498" type="qcurve" smooth="yes"/>
      <point x="646" y="404"/>
      <point x="542" y="283"/>
      <point x="462" y="283" type="qcurve"/>
      <point x="227" y="283" type="line"/>
      <point x="243" y="305" type="line"/>
      <point x="243" y="0" type="line"/>
      <point x="193" y="0" type="line"/>
    </contour>
    <contour>
      <point x="226" y="333" type="line"/>
      <point x="471" y="333" type="line" smooth="yes"/>
      <point x="524" y="333"/>
      <point x="593" y="427"/>
      <point x="593" y="500" type="qcurve" smooth="yes"/>
      <point x="593" y="565"/>
      <point x="524" y="650"/>
      <point x="471" y="650" type="qcurve"/>
      <point x="226" y="650" type="line"/>
      <point x="243" y="671" type="line"/>
      <point x="243" y="321" type="line"/>
    </contour>
    <contour>
      <point x="358" y="143" type="line"/>
      <point x="90" y="143" type="line"/>
      <point x="90" y="184" type="line"/>
      <point x="358" y="184" type="line"/>
    </contour>
  </outline>
</glyph>
<glyph name="dotbelowcomb.case" format="2">
  <guideline x="105" y="-44" angle="270" identifier="1zjKPzeGkK"/>
  <anchor x="105" y="0" name="_bottom"/>
  <anchor x="105" y="-194" name="bottom"/>
  <outline>
    <contour>
      <point x="151" y="-121" type="qcurve" smooth="yes"/>
      <point x="151" y="-141"/>
      <point x="127" y="-166"/>
      <point x="105" y="-166" type="qcurve" smooth="yes"/>
      <point x="83" y="-166"/>
      <point x="59" y="-142"/>
      <point x="59" y="-121" type="qcurve" smooth="yes"/>
      <point x="59" y="-101"/>
      <point x="83" y="-76"/>
      <point x="105" y="-76" type="qcurve" smooth="yes"/>
      <point x="127" y="-76"/>
      <point x="151" y="-100"/>
    </contour>
  </outline>
</glyph>
